<mxfile host="app.diagrams.net" agent="Mozilla/5.0 (Windows NT 10.0; Win64; x64) AppleWebKit/537.36 (KHTML, like Gecko) Chrome/132.0.0.0 YaBrowser/25.2.0.0 Safari/537.36" version="26.2.10">
  <diagram name="Страница — 1" id="oFeI4IzwDTeMwtEr_Rw7">
    <mxGraphModel dx="994" dy="514" grid="1" gridSize="10" guides="1" tooltips="1" connect="1" arrows="1" fold="1" page="1" pageScale="1" pageWidth="827" pageHeight="1169" math="0" shadow="0">
      <root>
        <mxCell id="0" />
        <mxCell id="1" parent="0" />
        <mxCell id="7b2K1Y0jvREfLudPawNW-4" value="" style="edgeStyle=orthogonalEdgeStyle;rounded=0;orthogonalLoop=1;jettySize=auto;html=1;" edge="1" parent="1" source="7b2K1Y0jvREfLudPawNW-2" target="7b2K1Y0jvREfLudPawNW-3">
          <mxGeometry relative="1" as="geometry" />
        </mxCell>
        <mxCell id="7b2K1Y0jvREfLudPawNW-2" value="Начало" style="ellipse;whiteSpace=wrap;html=1;" vertex="1" parent="1">
          <mxGeometry x="184" y="20" width="120" height="80" as="geometry" />
        </mxCell>
        <mxCell id="7b2K1Y0jvREfLudPawNW-6" value="" style="edgeStyle=orthogonalEdgeStyle;rounded=0;orthogonalLoop=1;jettySize=auto;html=1;" edge="1" parent="1" source="7b2K1Y0jvREfLudPawNW-3" target="7b2K1Y0jvREfLudPawNW-5">
          <mxGeometry relative="1" as="geometry" />
        </mxCell>
        <mxCell id="7b2K1Y0jvREfLudPawNW-3" value="volatile int16_t ugol = 0;" style="shape=parallelogram;perimeter=parallelogramPerimeter;whiteSpace=wrap;html=1;fixedSize=1;" vertex="1" parent="1">
          <mxGeometry x="167" y="120" width="154" height="40" as="geometry" />
        </mxCell>
        <mxCell id="7b2K1Y0jvREfLudPawNW-8" value="" style="edgeStyle=orthogonalEdgeStyle;rounded=0;orthogonalLoop=1;jettySize=auto;html=1;" edge="1" parent="1" source="7b2K1Y0jvREfLudPawNW-5" target="7b2K1Y0jvREfLudPawNW-7">
          <mxGeometry relative="1" as="geometry">
            <Array as="points">
              <mxPoint x="244" y="330" />
              <mxPoint x="244" y="330" />
            </Array>
          </mxGeometry>
        </mxCell>
        <mxCell id="7b2K1Y0jvREfLudPawNW-5" value="Инициализация&lt;br&gt;&lt;div&gt;&lt;span style=&quot;background-color: transparent; color: light-dark(rgb(0, 0, 0), rgb(255, 255, 255));&quot;&gt;прерываний&lt;/span&gt;&amp;nbsp;таймера,&lt;br&gt;(по заполнению 1,64 мс),&lt;/div&gt;&lt;div&gt;пину (спадающему фронту канала А энкодера)&lt;/div&gt;" style="rounded=0;whiteSpace=wrap;html=1;" vertex="1" parent="1">
          <mxGeometry x="171" y="190" width="146" height="100" as="geometry" />
        </mxCell>
        <mxCell id="7b2K1Y0jvREfLudPawNW-18" value="" style="edgeStyle=orthogonalEdgeStyle;rounded=0;orthogonalLoop=1;jettySize=auto;html=1;" edge="1" parent="1" source="7b2K1Y0jvREfLudPawNW-7" target="7b2K1Y0jvREfLudPawNW-17">
          <mxGeometry relative="1" as="geometry" />
        </mxCell>
        <mxCell id="7b2K1Y0jvREfLudPawNW-22" value="Да" style="edgeLabel;html=1;align=center;verticalAlign=middle;resizable=0;points=[];" vertex="1" connectable="0" parent="7b2K1Y0jvREfLudPawNW-18">
          <mxGeometry x="0.1227" y="-1" relative="1" as="geometry">
            <mxPoint as="offset" />
          </mxGeometry>
        </mxCell>
        <mxCell id="7b2K1Y0jvREfLudPawNW-25" value="" style="edgeStyle=orthogonalEdgeStyle;rounded=0;orthogonalLoop=1;jettySize=auto;html=1;" edge="1" parent="1" source="7b2K1Y0jvREfLudPawNW-7" target="7b2K1Y0jvREfLudPawNW-23">
          <mxGeometry relative="1" as="geometry" />
        </mxCell>
        <mxCell id="7b2K1Y0jvREfLudPawNW-26" value="Нет" style="edgeLabel;html=1;align=center;verticalAlign=middle;resizable=0;points=[];" vertex="1" connectable="0" parent="7b2K1Y0jvREfLudPawNW-25">
          <mxGeometry x="0.2847" y="-2" relative="1" as="geometry">
            <mxPoint as="offset" />
          </mxGeometry>
        </mxCell>
        <mxCell id="7b2K1Y0jvREfLudPawNW-7" value="while(True)" style="rhombus;whiteSpace=wrap;html=1;" vertex="1" parent="1">
          <mxGeometry x="170" y="320" width="150" height="90" as="geometry" />
        </mxCell>
        <mxCell id="7b2K1Y0jvREfLudPawNW-20" style="edgeStyle=orthogonalEdgeStyle;rounded=0;orthogonalLoop=1;jettySize=auto;html=1;entryX=1;entryY=0.5;entryDx=0;entryDy=0;" edge="1" parent="1" source="7b2K1Y0jvREfLudPawNW-17" target="7b2K1Y0jvREfLudPawNW-7">
          <mxGeometry relative="1" as="geometry">
            <Array as="points">
              <mxPoint x="370" y="470" />
              <mxPoint x="370" y="365" />
            </Array>
          </mxGeometry>
        </mxCell>
        <mxCell id="7b2K1Y0jvREfLudPawNW-17" value="__NOP();" style="whiteSpace=wrap;html=1;" vertex="1" parent="1">
          <mxGeometry x="184" y="430" width="120" height="60" as="geometry" />
        </mxCell>
        <mxCell id="7b2K1Y0jvREfLudPawNW-23" value="Конец" style="ellipse;whiteSpace=wrap;html=1;" vertex="1" parent="1">
          <mxGeometry x="20" y="325" width="110" height="80" as="geometry" />
        </mxCell>
        <mxCell id="7b2K1Y0jvREfLudPawNW-29" value="" style="edgeStyle=orthogonalEdgeStyle;rounded=0;orthogonalLoop=1;jettySize=auto;html=1;" edge="1" parent="1" source="7b2K1Y0jvREfLudPawNW-27">
          <mxGeometry relative="1" as="geometry">
            <mxPoint x="654.99" y="120" as="targetPoint" />
          </mxGeometry>
        </mxCell>
        <mxCell id="7b2K1Y0jvREfLudPawNW-27" value="начало прерывания по таймеру" style="ellipse;whiteSpace=wrap;html=1;" vertex="1" parent="1">
          <mxGeometry x="594.99" y="20" width="120" height="80" as="geometry" />
        </mxCell>
        <mxCell id="7b2K1Y0jvREfLudPawNW-32" value="" style="edgeStyle=orthogonalEdgeStyle;rounded=0;orthogonalLoop=1;jettySize=auto;html=1;" edge="1" parent="1" target="7b2K1Y0jvREfLudPawNW-31">
          <mxGeometry relative="1" as="geometry">
            <mxPoint x="654.99" y="200" as="sourcePoint" />
          </mxGeometry>
        </mxCell>
        <mxCell id="7b2K1Y0jvREfLudPawNW-30" value="byte1 = (ugol &amp;gt;&amp;gt; 8) &amp;amp; 0xFF;&lt;br&gt;byte2 = ugol &amp;amp; 0xFF;&amp;nbsp;&amp;nbsp;&lt;br&gt;//формируем данные по байтам для отправки по USART" style="rounded=0;whiteSpace=wrap;html=1;" vertex="1" parent="1">
          <mxGeometry x="580" y="120" width="150" height="80" as="geometry" />
        </mxCell>
        <mxCell id="7b2K1Y0jvREfLudPawNW-34" value="" style="edgeStyle=orthogonalEdgeStyle;rounded=0;orthogonalLoop=1;jettySize=auto;html=1;" edge="1" parent="1" source="7b2K1Y0jvREfLudPawNW-31" target="7b2K1Y0jvREfLudPawNW-33">
          <mxGeometry relative="1" as="geometry" />
        </mxCell>
        <mxCell id="7b2K1Y0jvREfLudPawNW-31" value="&lt;div&gt;&amp;nbsp; &amp;nbsp; &amp;nbsp; &amp;nbsp; putchar(byte1);&amp;nbsp; &amp;nbsp;&lt;/div&gt;&lt;div&gt;&amp;nbsp; &amp;nbsp; &amp;nbsp; &amp;nbsp; putchar(byte2);&amp;nbsp; &lt;br&gt;отправка значений на ПК&amp;nbsp;&amp;nbsp;&lt;/div&gt;" style="whiteSpace=wrap;html=1;rounded=0;" vertex="1" parent="1">
          <mxGeometry x="588.12" y="220" width="133.75" height="60" as="geometry" />
        </mxCell>
        <mxCell id="7b2K1Y0jvREfLudPawNW-33" value="конец" style="ellipse;whiteSpace=wrap;html=1;" vertex="1" parent="1">
          <mxGeometry x="594.99" y="300" width="120" height="80" as="geometry" />
        </mxCell>
        <mxCell id="7b2K1Y0jvREfLudPawNW-42" value="" style="edgeStyle=orthogonalEdgeStyle;rounded=0;orthogonalLoop=1;jettySize=auto;html=1;" edge="1" parent="1" source="7b2K1Y0jvREfLudPawNW-43">
          <mxGeometry relative="1" as="geometry">
            <mxPoint x="445.06" y="120" as="targetPoint" />
          </mxGeometry>
        </mxCell>
        <mxCell id="7b2K1Y0jvREfLudPawNW-43" value="начало прерывания по спаду канала А" style="ellipse;whiteSpace=wrap;html=1;" vertex="1" parent="1">
          <mxGeometry x="385.06" y="20" width="120" height="80" as="geometry" />
        </mxCell>
        <mxCell id="7b2K1Y0jvREfLudPawNW-46" value="" style="edgeStyle=orthogonalEdgeStyle;rounded=0;orthogonalLoop=1;jettySize=auto;html=1;" edge="1" parent="1" source="7b2K1Y0jvREfLudPawNW-47" target="7b2K1Y0jvREfLudPawNW-48">
          <mxGeometry relative="1" as="geometry">
            <Array as="points">
              <mxPoint x="362" y="210" />
              <mxPoint x="445" y="210" />
            </Array>
          </mxGeometry>
        </mxCell>
        <mxCell id="7b2K1Y0jvREfLudPawNW-47" value="ugol++" style="whiteSpace=wrap;html=1;rounded=0;" vertex="1" parent="1">
          <mxGeometry x="337.56" y="177.5" width="47.5" height="15" as="geometry" />
        </mxCell>
        <mxCell id="7b2K1Y0jvREfLudPawNW-48" value="конец" style="ellipse;whiteSpace=wrap;html=1;" vertex="1" parent="1">
          <mxGeometry x="397.55" y="230" width="95.01" height="60" as="geometry" />
        </mxCell>
        <mxCell id="7b2K1Y0jvREfLudPawNW-56" style="edgeStyle=orthogonalEdgeStyle;rounded=0;orthogonalLoop=1;jettySize=auto;html=1;entryX=0.5;entryY=0;entryDx=0;entryDy=0;" edge="1" parent="1" source="7b2K1Y0jvREfLudPawNW-49" target="7b2K1Y0jvREfLudPawNW-47">
          <mxGeometry relative="1" as="geometry">
            <Array as="points">
              <mxPoint x="361" y="148" />
            </Array>
          </mxGeometry>
        </mxCell>
        <mxCell id="7b2K1Y0jvREfLudPawNW-61" value="Да" style="edgeLabel;html=1;align=center;verticalAlign=middle;resizable=0;points=[];" vertex="1" connectable="0" parent="7b2K1Y0jvREfLudPawNW-56">
          <mxGeometry x="-0.6261" y="-1" relative="1" as="geometry">
            <mxPoint as="offset" />
          </mxGeometry>
        </mxCell>
        <mxCell id="7b2K1Y0jvREfLudPawNW-58" style="edgeStyle=orthogonalEdgeStyle;rounded=0;orthogonalLoop=1;jettySize=auto;html=1;entryX=0.5;entryY=0;entryDx=0;entryDy=0;" edge="1" parent="1" source="7b2K1Y0jvREfLudPawNW-49" target="7b2K1Y0jvREfLudPawNW-55">
          <mxGeometry relative="1" as="geometry">
            <Array as="points">
              <mxPoint x="533" y="148" />
            </Array>
          </mxGeometry>
        </mxCell>
        <mxCell id="7b2K1Y0jvREfLudPawNW-62" value="Нет" style="edgeLabel;html=1;align=center;verticalAlign=middle;resizable=0;points=[];" vertex="1" connectable="0" parent="7b2K1Y0jvREfLudPawNW-58">
          <mxGeometry x="-0.5358" y="-1" relative="1" as="geometry">
            <mxPoint as="offset" />
          </mxGeometry>
        </mxCell>
        <mxCell id="7b2K1Y0jvREfLudPawNW-49" value="Канал Б = 1" style="rhombus;whiteSpace=wrap;html=1;" vertex="1" parent="1">
          <mxGeometry x="380" y="120" width="130.01" height="55" as="geometry" />
        </mxCell>
        <mxCell id="7b2K1Y0jvREfLudPawNW-59" style="edgeStyle=orthogonalEdgeStyle;rounded=0;orthogonalLoop=1;jettySize=auto;html=1;entryX=0.5;entryY=0;entryDx=0;entryDy=0;" edge="1" parent="1" source="7b2K1Y0jvREfLudPawNW-55" target="7b2K1Y0jvREfLudPawNW-48">
          <mxGeometry relative="1" as="geometry">
            <Array as="points">
              <mxPoint x="534" y="210" />
              <mxPoint x="445" y="210" />
            </Array>
          </mxGeometry>
        </mxCell>
        <mxCell id="7b2K1Y0jvREfLudPawNW-55" value="ugol--" style="whiteSpace=wrap;html=1;rounded=0;" vertex="1" parent="1">
          <mxGeometry x="510.01" y="177.5" width="46.95" height="15" as="geometry" />
        </mxCell>
      </root>
    </mxGraphModel>
  </diagram>
</mxfile>
